<svg width="214" height="214" viewBox="0 0 214 214" fill="none" xmlns="http://www.w3.org/2000/svg">
<g filter="url(#filter0_d_2_84)">
<circle cx="107" cy="101" r="90" fill="#1A4E59"/>
<rect x="101.352" y="147.579" width="11.5723" height="1.44654" fill="#237A26"/>
<rect x="51.4465" y="146.855" width="51.3522" height="1.44654" fill="#237A26"/>
<rect x="111.478" y="146.855" width="51.3522" height="1.44654" fill="#237A26"/>
<rect x="51.4465" y="117.201" width="111.384" height="30.3774" fill="#8D8D8D"/>
<path d="M107.138 138.551C96.6509 130.036 50 138.551 50 138.551V146.855C50 146.855 95.9277 140.422 107.138 146.855C116.541 140.345 165 146.855 165 146.855V138.551C165 138.551 115.094 129.571 107.138 138.551Z" fill="url(#paint0_linear_2_84)"/>
<path d="M107.138 137.828C96.6509 129.312 50 137.828 50 137.828V146.132C50 146.132 94.4811 137.828 107.138 146.132C118.349 137.828 165 146.132 165 146.132V137.828C165 137.828 115.094 128.847 107.138 137.828Z" fill="url(#paint1_linear_2_84)"/>
<path d="M107.138 63.3579C86.1635 44.5527 50 63.3579 50 63.3579V145.811C50 145.811 91.2264 128.452 107.138 145.811C124.497 129.175 165 145.811 165 145.811V63.3579C165 63.3579 125.943 45.2759 107.138 63.3579Z" fill="url(#paint2_linear_2_84)"/>
<line x1="107.288" y1="63.8293" x2="107.288" y2="146.705" stroke="#A6A6A6" stroke-opacity="0.94" stroke-width="0.3" stroke-linecap="round"/>
<path d="M104.111 127L80 100.709L86.2626 92.2473L104.111 111.286L134.485 72L142 79.2527L104.111 127Z" fill="#289F2D"/>
</g>
<defs>
<filter id="filter0_d_2_84" x="0" y="0" width="214" height="214" filterUnits="userSpaceOnUse" color-interpolation-filters="sRGB">
<feFlood flood-opacity="0" result="BackgroundImageFix"/>
<feColorMatrix in="SourceAlpha" type="matrix" values="0 0 0 0 0 0 0 0 0 0 0 0 0 0 0 0 0 0 127 0" result="hardAlpha"/>
<feOffset dy="6"/>
<feGaussianBlur stdDeviation="8.5"/>
<feComposite in2="hardAlpha" operator="out"/>
<feColorMatrix type="matrix" values="0 0 0 0 0 0 0 0 0 0 0 0 0 0 0 0 0 0 0.25 0"/>
<feBlend mode="normal" in2="BackgroundImageFix" result="effect1_dropShadow_2_84"/>
<feBlend mode="normal" in="SourceGraphic" in2="effect1_dropShadow_2_84" result="shape"/>
</filter>
<linearGradient id="paint0_linear_2_84" x1="165" y1="142.266" x2="50" y2="142.266" gradientUnits="userSpaceOnUse">
<stop stop-color="#E1E1E1"/>
<stop offset="0.496855" stop-color="#8D8D8D"/>
<stop offset="1" stop-color="#DFDFDF"/>
</linearGradient>
<linearGradient id="paint1_linear_2_84" x1="165" y1="141.543" x2="50" y2="141.543" gradientUnits="userSpaceOnUse">
<stop stop-color="#F9F9F9"/>
<stop offset="0.496855" stop-color="#A5A5A5"/>
<stop offset="1" stop-color="#FBFBFB"/>
</linearGradient>
<linearGradient id="paint2_linear_2_84" x1="165" y1="100.245" x2="50" y2="100.245" gradientUnits="userSpaceOnUse">
<stop stop-color="white"/>
<stop offset="0.496855" stop-color="#B8B8B8"/>
<stop offset="1" stop-color="white"/>
</linearGradient>
</defs>
</svg>
